HIERARCHY
ROOT Hips
{
	OFFSET 0.000000 0.000000 0.000000
	CHANNELS 6 Xposition Yposition Zposition Xrotation Yrotation Zrotation
	JOINT LeftUpLeg_virtual
	{
		OFFSET 0.000000 0.000000 0.000000
		CHANNELS 3 Xrotation Yrotation Zrotation
		JOINT LeftUpLeg
		{
			OFFSET 10.205400 -3.823500 0.155100
			CHANNELS 3 Xrotation Yrotation Zrotation
			JOINT LeftLeg
			{
				OFFSET 0.708757 -12.982077 0.567790
				CHANNELS 3 Xrotation Yrotation Zrotation
				JOINT LeftFoot
				{
					OFFSET -0.708756 -10.717838 -2.184338
					CHANNELS 3 Xrotation Yrotation Zrotation
					JOINT LeftToeBase
					{
						OFFSET 0.108149 -7.191104 7.560241
						CHANNELS 3 Xrotation Yrotation Zrotation
						JOINT LeftToe_End
						{
							OFFSET 0.070230 0.081724 4.490308
							CHANNELS 3 Xrotation Yrotation Zrotation
							End Site
							{
								OFFSET 0 0 0
							}
						}
					}
				}
			}
		}
	}
	JOINT RightUpLeg_virtual
	{
		OFFSET 0.000000 0.000000 0.000000
		CHANNELS 3 Xrotation Yrotation Zrotation
		JOINT RightUpLeg
		{
			OFFSET -10.205400 -3.823500 0.005500
			CHANNELS 3 Xrotation Yrotation Zrotation
			JOINT RightLeg
			{
				OFFSET -0.708756 -12.982134 0.610632
				CHANNELS 3 Xrotation Yrotation Zrotation
				JOINT RightFoot
				{
					OFFSET 0.708754 -10.717769 -1.945823
					CHANNELS 3 Xrotation Yrotation Zrotation
					JOINT RightToeBase
					{
						OFFSET -0.108140 -7.191069 7.372968
						CHANNELS 3 Xrotation Yrotation Zrotation
						JOINT RightToe_End
						{
							OFFSET -0.070227 0.081735 4.479403
							CHANNELS 3 Xrotation Yrotation Zrotation
							End Site
							{
								OFFSET 0 0 0
							}
						}
					}
				}
			}
		}
	}
	JOINT Spine_virtual
	{
		OFFSET 0.000000 0.000000 0.000000
		CHANNELS 3 Xrotation Yrotation Zrotation
		JOINT Spine
		{
			OFFSET 0.000000 6.876099 0.125700
			CHANNELS 3 Xrotation Yrotation Zrotation
			JOINT Spine1
			{
				OFFSET 0.000000 5.730043 0.104720
				CHANNELS 3 Xrotation Yrotation Zrotation
				JOINT Spine1_split
				{
					OFFSET 0.000000 5.730043 0.104720
					CHANNELS 3 Xrotation Yrotation Zrotation
					JOINT Spine2
					{
						OFFSET 0.000000 5.730043 0.104720
						CHANNELS 3 Xrotation Yrotation Zrotation
						JOINT Neck_virtual
						{
							OFFSET 0.000000 0.000000 0.000000
							CHANNELS 3 Xrotation Yrotation Zrotation
							JOINT Neck
							{
								OFFSET 0.000000 10.314075 0.188496
								CHANNELS 3 Xrotation Yrotation Zrotation
								JOINT Head
								{
									OFFSET 0.000000 7.643700 -2.377400
									CHANNELS 3 Xrotation Yrotation Zrotation
									JOINT HeadTop_End
									{
										OFFSET 0.000000 43.788605 -13.619600
										CHANNELS 3 Xrotation Yrotation Zrotation
										End Site
										{
											OFFSET 0 0 0
										}
									}
								}
							}
						}
						JOINT LeftShoulder_virtual
						{
							OFFSET 0.000000 0.000000 0.000000
							CHANNELS 3 Xrotation Yrotation Zrotation
							JOINT LeftShoulder
							{
								OFFSET 2.196100 4.412489 0.087492
								CHANNELS 3 Xrotation Yrotation Zrotation
								JOINT LeftShoulder_split
								{
									OFFSET 2.196100 4.412489 0.087492
									CHANNELS 3 Xrotation Yrotation Zrotation
									JOINT LeftArm
									{
										OFFSET 8.771219 -2.981674 -0.026999
										CHANNELS 3 Xrotation Yrotation Zrotation
										JOINT LeftForeArm
										{
											OFFSET 8.512804 0.000000 -0.000000
											CHANNELS 3 Xrotation Yrotation Zrotation
											JOINT LeftHand
											{
												OFFSET 18.484802 0.000000 -0.000000
												CHANNELS 3 Xrotation Yrotation Zrotation
												End Site
												{
													OFFSET 0 0 0
												}
											}
										}
									}
								}
							}
						}
						JOINT RightShoulder_virtual
						{
							OFFSET 0.000000 0.000000 0.000000
							CHANNELS 3 Xrotation Yrotation Zrotation
							JOINT RightShoulder
							{
								OFFSET -2.196100 4.412496 0.070690
								CHANNELS 3 Xrotation Yrotation Zrotation
								JOINT RightShoulder_split
								{
									OFFSET -2.196100 4.412496 0.070690
									CHANNELS 3 Xrotation Yrotation Zrotation
									JOINT RightArm
									{
										OFFSET -8.771282 -2.981682 -0.094208
										CHANNELS 3 Xrotation Yrotation Zrotation
										JOINT RightForeArm
										{
											OFFSET -8.494598 0.000000 0.000000
											CHANNELS 3 Xrotation Yrotation Zrotation
											JOINT RightHand
											{
												OFFSET -18.483803 0.000000 0.000001
												CHANNELS 3 Xrotation Yrotation Zrotation
												End Site
												{
													OFFSET 0 0 0
												}
											}
										}
									}
								}
							}
						}
					}
				}
			}
		}
	}
}
MOTION
Frames: 8
Frame Time: 0.03333333
0.065813 30.777649 0.155846 0.000000 0.000000 0.000000 -4.610779 -45.745441 -2.505043 -31.657906 4.080935 11.386621 38.153010 -12.799215 1.927479 -7.827434 0.242705 -7.559184 -0.673252 -2.245238 0.906873 0.000000 0.000000 0.000000 -5.476716 -44.842128 -2.539178 8.093072 -13.561019 -18.589046 24.593520 -6.632977 0.299460 -30.069689 -9.433398 23.095489 -1.799923 -1.307487 -0.510299 0.000000 0.000000 0.000000 -3.440332 -42.664797 -1.710025 6.064554 5.223181 -1.132415 12.595005 9.402134 -3.161278 1.044076 -1.369507 0.654988 0.000000 0.000000 0.000000 12.276462 9.129402 -3.240079 -4.129071 -1.974063 0.365878 -4.508437 21.866309 -1.306127 0.000000 0.000000 0.000000 12.155177 9.344737 -3.064299 1.903424 -0.035317 -7.180621 -2.735261 -3.174676 -0.615771 -14.657991 3.836279 -61.379434 8.859081 -46.774334 5.321368 0.000000 0.000000 0.000000 12.233471 9.337969 -3.279886 1.439057 10.111587 11.640644 -1.912059 3.191830 -0.540427 3.615436 -21.312849 61.196241 -5.975863 41.682783 7.990007 0.000000 0.000000 0.000000 
0.066218 30.780405 0.181480 0.000000 0.000000 0.000000 -4.547428 -45.727915 -2.472315 -31.662923 4.050786 11.379364 38.099048 -12.794904 1.921316 -7.888258 0.258030 -7.521260 -0.624459 -2.250513 0.915543 0.000000 0.000000 0.000000 -5.376981 -44.809692 -2.504898 8.101561 -13.464920 -18.595878 24.644581 -6.574104 0.248409 -30.077155 -9.453790 23.138357 -1.783674 -1.321219 -0.485709 0.000000 0.000000 0.000000 -3.338432 -42.665781 -1.674489 6.033402 5.218654 -1.130137 12.557724 9.371621 -3.175075 1.098647 -1.477682 0.654065 0.000000 0.000000 0.000000 12.270714 9.102177 -3.229550 -4.095248 -1.848274 0.297384 -4.504179 22.003581 -1.244864 0.000000 0.000000 0.000000 12.129705 9.314425 -3.072889 1.916472 -0.049475 -7.237259 -2.685757 -3.153944 -0.488478 -14.684693 3.760404 -61.360254 8.909393 -46.910091 5.353648 0.000000 0.000000 0.000000 12.200744 9.307886 -3.257582 1.453073 10.092096 11.634740 -2.008416 3.264365 -0.489705 3.628051 -21.277438 61.211629 -5.936973 41.566673 7.956411 0.000000 0.000000 0.000000 
0.070715 30.787355 0.198099 0.000000 0.000000 0.000000 -4.449965 -45.758490 -2.421799 -31.636610 4.014216 11.362492 37.997309 -12.767601 1.943170 -7.991845 0.295447 -7.531201 -0.570541 -2.256266 0.914723 0.000000 0.000000 0.000000 -5.278939 -44.814261 -2.460900 8.006337 -13.419160 -18.600801 24.737311 -6.505492 0.167052 -30.059533 -9.492078 23.197967 -1.774422 -1.348042 -0.490814 0.000000 0.000000 0.000000 -3.211628 -42.673912 -1.631941 6.025546 5.198753 -1.127081 12.523739 9.318467 -3.179242 1.107703 -1.527588 0.679940 0.000000 0.000000 0.000000 12.244175 9.051385 -3.224621 -4.045778 -1.697972 0.238328 -4.415108 22.359729 -1.231147 0.000000 0.000000 0.000000 12.107617 9.254474 -3.079281 1.930953 -0.069373 -7.269412 -2.650167 -3.119258 -0.383212 -14.730783 3.723083 -61.371408 8.963296 -47.068517 5.395361 0.000000 0.000000 0.000000 12.176108 9.256015 -3.232806 1.460004 10.068426 11.640950 -2.054006 3.293720 -0.453198 3.583250 -21.168250 61.213788 -5.861495 41.363479 7.881041 0.000000 0.000000 0.000000 
0.074304 30.792744 0.200779 0.000000 0.000000 0.000000 -4.330280 -45.824487 -2.354468 -31.594864 3.976531 11.335682 37.886373 -12.723582 1.987943 -8.098899 0.351316 -7.594030 -0.532398 -2.260946 0.904752 0.000000 0.000000 0.000000 -5.185054 -44.840113 -2.403483 7.801113 -13.428369 -18.607749 24.877151 -6.425131 0.062897 -30.001094 -9.542112 23.305388 -1.772004 -1.386054 -0.516122 0.000000 0.000000 0.000000 -3.086407 -42.684499 -1.585486 6.040761 5.163520 -1.125859 12.492398 9.240800 -3.172574 1.053621 -1.524513 0.721337 0.000000 0.000000 0.000000 12.205561 8.976152 -3.222529 -3.998487 -1.515003 0.182043 -4.273219 22.966550 -1.288895 0.000000 0.000000 0.000000 12.085383 9.163863 -3.079199 1.944983 -0.094833 -7.282487 -2.642807 -3.055137 -0.310391 -14.767851 3.747653 -61.405368 9.023040 -47.269038 5.451781 0.000000 0.000000 0.000000 12.151076 9.180554 -3.204413 1.462957 10.038580 11.637696 -2.068950 3.283908 -0.444853 3.497234 -21.022561 61.193174 -5.770590 41.110721 7.782133 0.000000 0.000000 0.000000 
0.078747 30.794899 0.194300 0.000000 0.000000 0.000000 -4.209270 -45.907289 -2.278501 -31.563926 3.951885 11.300568 37.798537 -12.668057 2.040646 -8.168234 0.418362 -7.686700 -0.500765 -2.266427 0.888682 0.000000 0.000000 0.000000 -5.105268 -44.868691 -2.338529 7.547756 -13.501003 -18.595935 25.023873 -6.335178 -0.066438 -29.928175 -9.591443 23.431046 -1.804521 -1.430485 -0.551203 0.000000 0.000000 0.000000 -2.985820 -42.696899 -1.534089 6.072200 5.115492 -1.125502 12.467680 9.137033 -3.160736 0.995550 -1.485946 0.741692 0.000000 0.000000 0.000000 12.162613 8.873413 -3.221501 -3.977693 -1.285074 0.115950 -4.124914 23.844484 -1.439959 0.000000 0.000000 0.000000 12.064797 9.039020 -3.073399 1.957350 -0.122577 -7.284703 -2.635104 -2.987129 -0.295761 -14.787093 3.812707 -61.450406 9.108178 -47.527909 5.532488 0.000000 0.000000 0.000000 12.122293 9.079521 -3.174604 1.462527 10.006514 11.614707 -2.054901 3.250130 -0.453196 3.392147 -20.878130 61.159952 -5.694739 40.873307 7.686557 0.000000 0.000000 0.000000 
0.084298 30.794350 0.185881 0.000000 0.000000 0.000000 -4.099251 -45.982107 -2.194870 -31.555245 3.953813 11.255295 37.741771 -12.603711 2.085687 -8.187980 0.481453 -7.776818 -0.464469 -2.275556 0.871464 0.000000 0.000000 0.000000 -5.039813 -44.886210 -2.265820 7.322192 -13.633979 -18.543629 25.130718 -6.261783 -0.227688 -29.884892 -9.635372 23.516626 -1.883218 -1.473008 -0.577305 0.000000 0.000000 0.000000 -2.929350 -42.707786 -1.476113 6.104567 5.057037 -1.124536 12.446656 9.005296 -3.151024 0.941349 -1.425373 0.742558 0.000000 0.000000 0.000000 12.119721 8.738865 -3.222738 -4.010056 -0.990290 0.023178 -3.997260 25.016657 -1.703030 0.000000 0.000000 0.000000 12.046411 8.881272 -3.065864 1.969563 -0.148339 -7.287377 -2.585276 -2.971222 -0.305851 -14.783021 3.885146 -61.496558 9.226979 -47.833533 5.637224 0.000000 0.000000 0.000000 12.086307 8.948791 -3.144683 1.458531 9.979785 11.561548 -1.998366 3.207928 -0.465479 3.278341 -20.760015 61.123144 -5.651005 40.701534 7.614534 0.000000 0.000000 0.000000 
0.090263 30.794537 0.185295 0.000000 0.000000 0.000000 -4.002420 -46.034768 -2.090991 -31.553435 4.006274 11.200459 37.701756 -12.535630 2.110330 -8.200265 0.530413 -7.821513 -0.405011 -2.292546 0.859149 0.000000 0.000000 0.000000 -4.997902 -44.884117 -2.188116 7.162871 -13.815961 -18.447193 25.173212 -6.241550 -0.416977 -29.883888 -9.659289 23.518226 -1.981178 -1.506417 -0.575410 0.000000 0.000000 0.000000 -2.911836 -42.725818 -1.405875 6.138042 4.994988 -1.125040 12.425734 8.847828 -3.149640 0.910744 -1.372961 0.752395 0.000000 0.000000 0.000000 12.078061 8.575224 -3.228295 -4.115454 -0.618332 -0.100131 -3.905575 26.479568 -2.081139 0.000000 0.000000 0.000000 12.034708 8.694340 -3.058882 1.981980 -0.169293 -7.288355 -2.512081 -2.960381 -0.327813 -14.762257 3.914186 -61.529998 9.360877 -48.128907 5.740663 0.000000 0.000000 0.000000 12.043044 8.788427 -3.119468 1.451420 9.967287 11.481529 -1.943325 3.153742 -0.446676 3.165538 -20.670304 61.092238 -5.632961 40.589721 7.566321 0.000000 0.000000 0.000000 
0.096420 30.799925 0.183891 0.000000 0.000000 0.000000 -3.910661 -46.048838 -1.956497 -31.543620 4.109328 11.126592 37.658757 -12.486821 2.116123 -8.261030 0.539854 -7.827837 -0.349042 -2.318359 0.874683 0.000000 0.000000 0.000000 -4.973952 -44.864685 -2.097696 7.064899 -14.014473 -18.329455 25.153466 -6.281845 -0.620613 -29.889096 -9.652774 23.482989 -2.107751 -1.532010 -0.538843 0.000000 0.000000 0.000000 -2.920613 -42.744731 -1.314149 6.177914 4.935502 -1.125581 12.401551 8.672297 -3.158109 0.925423 -1.354453 0.766004 0.000000 0.000000 0.000000 12.035085 8.390339 -3.239198 -4.309438 -0.159400 -0.243786 -3.851603 28.201837 -2.560181 0.000000 0.000000 0.000000 12.030120 8.488367 -3.055137 1.993954 -0.178963 -7.293769 -2.414767 -2.939587 -0.349583 -14.720465 3.873811 -61.543174 9.488860 -48.329275 5.815007 0.000000 0.000000 0.000000 12.005217 8.606598 -3.105922 1.436985 9.975104 11.391960 -1.913812 3.095762 -0.380827 3.076939 -20.586755 61.076153 -5.622377 40.484659 7.531533 0.000000 0.000000 0.000000 
